<svg width="22.000000" height="22.000000" viewBox="0 0 22 22" fill="none" xmlns="http://www.w3.org/2000/svg" xmlns:xlink="http://www.w3.org/1999/xlink">
	<desc>
			Created with Pixso.
	</desc>
	<defs>
		<clipPath id="clip102_157">
			<rect id="Check" width="22.000000" height="22.000000" transform="translate(-0.951294 0.000000)" fill="white" fill-opacity="0"/>
		</clipPath>
	</defs>
	<rect id="Check" width="22.000000" height="22.000000" transform="translate(-0.951294 0.000000)" fill="#FFFFFF" fill-opacity="0"/>
	<g clip-path="url(#clip102_157)">
		<path id="Vector" d="M18.78 6.67L7.78 17.67C7.72 17.73 7.64 17.78 7.56 17.82C7.47 17.85 7.38 17.87 7.29 17.87C7.2 17.87 7.11 17.85 7.03 17.82C6.95 17.78 6.87 17.73 6.81 17.67L1.99 12.86C1.87 12.73 1.79 12.55 1.79 12.37C1.79 12.19 1.87 12.01 1.99 11.88C2.12 11.75 2.3 11.68 2.48 11.68C2.66 11.68 2.84 11.75 2.97 11.88L7.29 16.21L17.81 5.7C17.94 5.57 18.11 5.49 18.29 5.49C18.48 5.49 18.65 5.57 18.78 5.7C18.91 5.83 18.98 6 18.98 6.18C18.98 6.36 18.91 6.54 18.78 6.67Z" fill="black" fill-opacity="1.000000" fill-rule="nonzero"/>
	</g>
</svg>
