<svg width="22.000000" height="22.000000" viewBox="0 0 22 22" fill="none" xmlns="http://www.w3.org/2000/svg" xmlns:xlink="http://www.w3.org/1999/xlink">
	<desc>
			Created with Pixso.
	</desc>
	<defs>
		<clipPath id="clip102_174">
			<rect id="TrashSimple" width="22.000000" height="22.000000" transform="translate(-0.951294 0.000000)" fill="white" fill-opacity="0"/>
		</clipPath>
	</defs>
	<rect id="TrashSimple" width="22.000000" height="22.000000" transform="translate(-0.951294 0.000000)" fill="#FFFFFF" fill-opacity="0"/>
	<g clip-path="url(#clip102_174)">
		<path id="Vector" d="M17.61 4.12L2.48 4.12C2.3 4.12 2.12 4.19 2 4.32C1.87 4.45 1.79 4.63 1.79 4.81C1.79 4.99 1.87 5.16 2 5.29C2.12 5.42 2.3 5.5 2.48 5.5L3.17 5.5L3.17 17.87C3.17 18.23 3.31 18.58 3.57 18.84C3.83 19.1 4.18 19.25 4.54 19.25L15.54 19.25C15.91 19.25 16.26 19.1 16.52 18.84C16.77 18.58 16.92 18.23 16.92 17.87L16.92 5.5L17.61 5.5C17.79 5.5 17.96 5.42 18.09 5.29C18.22 5.16 18.29 4.99 18.29 4.81C18.29 4.63 18.22 4.45 18.09 4.32C17.96 4.19 17.79 4.12 17.61 4.12ZM15.54 17.87L4.54 17.87L4.54 5.5L15.54 5.5L15.54 17.87ZM5.92 2.06C5.92 1.88 5.99 1.7 6.12 1.57C6.25 1.44 6.42 1.37 6.61 1.37L13.48 1.37C13.66 1.37 13.84 1.44 13.97 1.57C14.1 1.7 14.17 1.88 14.17 2.06C14.17 2.24 14.1 2.41 13.97 2.54C13.84 2.67 13.66 2.75 13.48 2.75L6.61 2.75C6.42 2.75 6.25 2.67 6.12 2.54C5.99 2.41 5.92 2.24 5.92 2.06Z" fill="#9E78CF" fill-opacity="1.000000" fill-rule="nonzero"/>
	</g>
</svg>

